<svg width="38" height="38" viewBox="0 0 38 38" fill="none" xmlns="http://www.w3.org/2000/svg">
<rect x="0.300781" y="0.301758" width="37.3578" height="37.3578" rx="18.6789" fill="#FA5A7D"/>
<path fill-rule="evenodd" clip-rule="evenodd" d="M12.4324 10.5664C11.3997 10.5664 10.5625 11.4036 10.5625 12.4363V25.5257C10.5625 26.5584 11.3997 27.3956 12.4324 27.3956H25.5217C26.5545 27.3956 27.3917 26.5584 27.3917 25.5257V12.4363C27.3917 11.4036 26.5545 10.5664 25.5217 10.5664H12.4324ZM15.2373 19.9159C15.2373 19.3996 14.8187 18.981 14.3023 18.981C13.786 18.981 13.3674 19.3996 13.3674 19.9159V23.6557C13.3674 24.1721 13.786 24.5907 14.3023 24.5907C14.8187 24.5907 15.2373 24.1721 15.2373 23.6557V19.9159ZM18.9771 16.1761C19.4934 16.1761 19.912 16.5947 19.912 17.1111V23.6557C19.912 24.1721 19.4934 24.5907 18.9771 24.5907C18.4607 24.5907 18.0421 24.1721 18.0421 23.6557V17.1111C18.0421 16.5947 18.4607 16.1761 18.9771 16.1761ZM24.5868 14.3062C24.5868 13.7898 24.1682 13.3713 23.6518 13.3713C23.1355 13.3713 22.7169 13.7898 22.7169 14.3062V23.6557C22.7169 24.1721 23.1355 24.5907 23.6518 24.5907C24.1682 24.5907 24.5868 24.1721 24.5868 23.6557V14.3062Z" fill="white"/>
</svg>
