<svg width="18" height="19" viewBox="0 0 18 19" fill="none" xmlns="http://www.w3.org/2000/svg">
<path fill-rule="evenodd" clip-rule="evenodd" d="M14.2562 2.61377C15.0855 2.61377 15.7578 3.28608 15.7578 4.11539V14.6267C15.7578 15.456 15.0855 16.1283 14.2562 16.1283H3.74487C2.91555 16.1283 2.24325 15.456 2.24325 14.6267V4.11539C2.24325 3.28608 2.91555 2.61377 3.74487 2.61377H14.2562ZM12.0038 10.1219C12.0038 9.70718 12.3399 9.37105 12.7546 9.37105C13.1692 9.37105 13.5054 9.70718 13.5054 10.1219V13.1251C13.5054 13.5398 13.1692 13.8759 12.7546 13.8759C12.3399 13.8759 12.0038 13.5398 12.0038 13.1251V10.1219ZM9.00053 7.11862C8.58587 7.11862 8.24972 7.45475 8.24972 7.86943V13.1251C8.24972 13.5398 8.58587 13.8759 9.00053 13.8759C9.41519 13.8759 9.75134 13.5398 9.75134 13.1251V7.86943C9.75134 7.45475 9.41519 7.11862 9.00053 7.11862ZM4.49568 5.61701C4.49568 5.20233 4.83183 4.8662 5.24649 4.8662C5.66115 4.8662 5.9973 5.20233 5.9973 5.61701V13.1251C5.9973 13.5398 5.66115 13.8759 5.24649 13.8759C4.83183 13.8759 4.49568 13.5398 4.49568 13.1251V5.61701Z" fill="white"/>
</svg>
