<svg width="15" height="15" viewBox="0 0 15 15" fill="none" xmlns="http://www.w3.org/2000/svg">
<g clip-path="url(#clip0_4126_412220)">
<path d="M10.7624 1.25586C10.7624 1.09049 10.8281 0.931892 10.945 0.814955C11.062 0.698018 11.2206 0.632324 11.3859 0.632324H13.7242C13.8896 0.632324 14.0482 0.698018 14.1651 0.814955C14.2821 0.931892 14.3478 1.09049 14.3478 1.25586V4.37357C14.3478 4.53894 14.2821 4.69754 14.1651 4.81448C14.0482 4.93141 13.8896 4.99711 13.7242 4.99711H13.1007V13.8826C13.1007 14.0066 13.0514 14.1255 12.9637 14.2132C12.876 14.3009 12.7571 14.3502 12.633 14.3502C12.509 14.3502 12.39 14.3009 12.3023 14.2132C12.2146 14.1255 12.1654 14.0066 12.1654 13.8826V4.99711H11.3859C11.2206 4.99711 11.062 4.93141 10.945 4.81448C10.8281 4.69754 10.7624 4.53894 10.7624 4.37357V1.25586ZM9.85827 1.87941C9.95305 1.87941 10.0466 1.88564 10.1389 1.89874V2.85213C10.0473 2.82774 9.953 2.81537 9.85827 2.81534H5.11999C4.87657 2.81532 4.64014 2.89669 4.44829 3.04651C4.25644 3.19633 4.12019 3.40599 4.06122 3.64215L3.56737 5.62065H11.5418V6.55596H3.27992C3.15589 6.55596 3.03694 6.60523 2.94924 6.69293C2.86153 6.78064 2.81226 6.89959 2.81226 7.02362V10.609H11.5418V11.5443H10.9177L10.9183 12.3218C10.9183 12.4079 10.9881 12.4777 11.0742 12.4777H11.5418V13.413H11.0742C10.7848 13.413 10.5072 13.2981 10.3026 13.0934C10.0979 12.8888 9.98298 12.6112 9.98298 12.3218L9.98236 11.5443H4.99715V12.3218C4.99715 12.6112 4.88219 12.8888 4.67755 13.0934C4.47291 13.2981 4.19536 13.413 3.90595 13.413H2.96815C2.67875 13.413 2.4012 13.2981 2.19656 13.0934C1.99192 12.8888 1.87695 12.6112 1.87695 12.3218V7.02362C1.87695 6.51543 2.14695 6.07022 2.55162 5.82455L2.6807 5.30888H2.34461C2.2316 5.30887 2.12241 5.26795 2.03725 5.19367C1.95208 5.11939 1.89669 5.01678 1.88132 4.90482L1.87695 4.84122C1.87696 4.72821 1.91788 4.61903 1.99216 4.53386C2.06644 4.44869 2.16905 4.3933 2.28101 4.37793L2.34461 4.37357H2.9139L3.15459 3.41456C3.26417 2.97608 3.51719 2.58682 3.87342 2.30866C4.22965 2.0305 4.66865 1.87941 5.12061 1.87941H9.85827ZM4.06122 11.5443H2.81164L2.81226 12.3218C2.81226 12.4079 2.8821 12.4777 2.96815 12.4777H3.90595C3.9473 12.4777 3.98695 12.4613 4.01618 12.4321C4.04542 12.4028 4.06184 12.3632 4.06184 12.3218L4.06122 11.5443ZM6.39638 8.73835H8.58001C8.69845 8.73855 8.8124 8.78367 8.89886 8.86461C8.98532 8.94555 9.03785 9.05628 9.04584 9.17444C9.05383 9.29261 9.0167 9.4094 8.94193 9.50125C8.86716 9.5931 8.76032 9.65316 8.64299 9.6693L8.58001 9.67366H6.39638C6.27789 9.67363 6.16383 9.62862 6.07725 9.54772C5.99067 9.46683 5.93803 9.3561 5.92995 9.23788C5.92187 9.11967 5.95897 9.0028 6.03374 8.91089C6.10852 8.81897 6.21539 8.75887 6.33277 8.74272L6.39638 8.73835ZM10.6065 7.49127C10.7719 7.49127 10.9305 7.55697 11.0474 7.6739C11.1644 7.79084 11.2301 7.94944 11.2301 8.11481C11.2301 8.28019 11.1644 8.43879 11.0474 8.55572C10.9305 8.67266 10.7719 8.73835 10.6065 8.73835C10.4411 8.73835 10.2825 8.67266 10.1656 8.55572C10.0487 8.43879 9.98298 8.28019 9.98298 8.11481C9.98298 7.94944 10.0487 7.79084 10.1656 7.6739C10.2825 7.55697 10.4411 7.49127 10.6065 7.49127ZM4.37112 7.49127C4.53649 7.49127 4.69509 7.55697 4.81203 7.6739C4.92896 7.79084 4.99466 7.94944 4.99466 8.11481C4.99466 8.28019 4.92896 8.43879 4.81203 8.55572C4.69509 8.67266 4.53649 8.73835 4.37112 8.73835C4.20574 8.73835 4.04714 8.67266 3.93021 8.55572C3.81327 8.43879 3.74757 8.28019 3.74757 8.11481C3.74757 7.94944 3.81327 7.79084 3.93021 7.6739C4.04714 7.55697 4.20574 7.49127 4.37112 7.49127Z" fill="white"/>
</g>
<defs>
<clipPath id="clip0_4126_412220">
<rect width="14.965" height="14.965" fill="white" transform="translate(0.0078125 0.00878906)"/>
</clipPath>
</defs>
</svg>
