<svg width="39" height="38" viewBox="0 0 39 38" fill="none" xmlns="http://www.w3.org/2000/svg">
<rect x="0.800781" y="0.301758" width="37.3578" height="37.3578" rx="18.6789" fill="#4657EF"/>
<path d="M24.7305 8.98047C24.7305 8.71525 24.8358 8.4609 25.0234 8.27336C25.2109 8.08583 25.4653 7.98047 25.7305 7.98047H29.4805C29.7457 7.98047 30 8.08583 30.1876 8.27336C30.3751 8.4609 30.4805 8.71525 30.4805 8.98047V13.9805C30.4805 14.2457 30.3751 14.5 30.1876 14.6876C30 14.8751 29.7457 14.9805 29.4805 14.9805H28.4805V29.2305C28.4805 29.4294 28.4015 29.6201 28.2608 29.7608C28.1201 29.9015 27.9294 29.9805 27.7305 29.9805C27.5316 29.9805 27.3408 29.9015 27.2001 29.7608C27.0595 29.6201 26.9805 29.4294 26.9805 29.2305V14.9805H25.7305C25.4653 14.9805 25.2109 14.8751 25.0234 14.6876C24.8358 14.5 24.7305 14.2457 24.7305 13.9805V8.98047ZM23.2805 9.98047C23.4325 9.98047 23.5825 9.99047 23.7305 10.0115V11.5405C23.5837 11.5014 23.4324 11.4815 23.2805 11.4815H15.6815C15.2911 11.4814 14.9119 11.6119 14.6042 11.8522C14.2966 12.0925 14.0781 12.4287 13.9835 12.8075L13.1915 15.9805H25.9805V17.4805H12.7305C12.5316 17.4805 12.3408 17.5595 12.2001 17.7001C12.0595 17.8408 11.9805 18.0316 11.9805 18.2305V23.9805H25.9805V25.4805H24.9795L24.9805 26.7275C24.9805 26.8655 25.0925 26.9775 25.2305 26.9775H25.9805V28.4775H25.2305C24.7663 28.4775 24.3212 28.2931 23.993 27.9649C23.6648 27.6367 23.4805 27.1916 23.4805 26.7275L23.4795 25.4805H15.4845V26.7275C15.4845 27.1916 15.3001 27.6367 14.9719 27.9649C14.6437 28.2931 14.1986 28.4775 13.7345 28.4775H12.2305C11.7663 28.4775 11.3212 28.2931 10.993 27.9649C10.6648 27.6367 10.4805 27.1916 10.4805 26.7275V18.2305C10.4805 17.4155 10.9135 16.7015 11.5625 16.3075L11.7695 15.4805H11.2305C11.0492 15.4805 10.8741 15.4148 10.7375 15.2957C10.6009 15.1766 10.5121 15.012 10.4875 14.8325L10.4805 14.7305C10.4805 14.5492 10.5461 14.3741 10.6652 14.2375C10.7844 14.1009 10.9489 14.0121 11.1285 13.9875L11.2305 13.9805H12.1435L12.5295 12.4425C12.7052 11.7393 13.111 11.115 13.6823 10.6689C14.2536 10.2228 14.9576 9.98047 15.6825 9.98047H23.2805ZM13.9835 25.4805H11.9795L11.9805 26.7275C11.9805 26.8655 12.0925 26.9775 12.2305 26.9775H13.7345C13.8008 26.9775 13.8644 26.9511 13.9112 26.9042C13.9581 26.8574 13.9845 26.7938 13.9845 26.7275L13.9835 25.4805ZM17.7285 20.9805H21.2305C21.4204 20.9808 21.6032 21.0531 21.7418 21.183C21.8805 21.3128 21.9647 21.4903 21.9775 21.6798C21.9904 21.8694 21.9308 22.0567 21.8109 22.204C21.691 22.3513 21.5196 22.4476 21.3315 22.4735L21.2305 22.4805H17.7285C17.5384 22.4804 17.3555 22.4082 17.2167 22.2785C17.0778 22.1488 16.9934 21.9712 16.9804 21.7816C16.9675 21.592 17.027 21.4046 17.1469 21.2572C17.2668 21.1098 17.4382 21.0134 17.6265 20.9875L17.7285 20.9805ZM24.4805 18.9805C24.7457 18.9805 25 19.0858 25.1876 19.2734C25.3751 19.4609 25.4805 19.7153 25.4805 19.9805C25.4805 20.2457 25.3751 20.5 25.1876 20.6876C25 20.8751 24.7457 20.9805 24.4805 20.9805C24.2153 20.9805 23.9609 20.8751 23.7734 20.6876C23.5858 20.5 23.4805 20.2457 23.4805 19.9805C23.4805 19.7153 23.5858 19.4609 23.7734 19.2734C23.9609 19.0858 24.2153 18.9805 24.4805 18.9805ZM14.4805 18.9805C14.7457 18.9805 15 19.0858 15.1876 19.2734C15.3751 19.4609 15.4805 19.7153 15.4805 19.9805C15.4805 20.2457 15.3751 20.5 15.1876 20.6876C15 20.8751 14.7457 20.9805 14.4805 20.9805C14.2153 20.9805 13.9609 20.8751 13.7734 20.6876C13.5858 20.5 13.4805 20.2457 13.4805 19.9805C13.4805 19.7153 13.5858 19.4609 13.7734 19.2734C13.9609 19.0858 14.2153 18.9805 14.4805 18.9805Z" fill="white"/>
</svg>
