<svg width="13" height="15" viewBox="0 0 13 15" fill="none" xmlns="http://www.w3.org/2000/svg">
<g clip-path="url(#clip0_4126_412230)">
<path d="M8.90937 4.00717C8.90937 4.02669 8.90886 4.04621 8.90788 4.06571C8.90689 4.0852 8.90542 4.10467 8.90346 4.12411C8.9015 4.14353 8.89904 4.16292 8.8961 4.18223C8.89315 4.20154 8.88972 4.22077 8.88579 4.23992C8.88189 4.25907 8.87748 4.27814 8.87262 4.29708C8.86774 4.31602 8.8624 4.33483 8.85657 4.35353C8.85073 4.3722 8.84443 4.39074 8.83767 4.40913C8.83091 4.42751 8.82371 4.44573 8.81603 4.46377C8.80834 4.4818 8.80021 4.49966 8.79163 4.51729C8.78306 4.53496 8.77404 4.55239 8.76458 4.56963C8.75512 4.58684 8.74522 4.60382 8.73492 4.62058C8.72459 4.63732 8.71387 4.65382 8.70272 4.67005C8.69157 4.68628 8.68001 4.70225 8.66807 4.71793C8.6561 4.73361 8.64375 4.74902 8.63105 4.76411C8.61831 4.7792 8.6052 4.79398 8.59173 4.80846C8.57824 4.82292 8.56441 4.83705 8.55021 4.85087C8.53603 4.86467 8.5215 4.87814 8.50664 4.89124C8.49176 4.90435 8.47657 4.91711 8.46106 4.92949C8.44555 4.94188 8.42974 4.9539 8.41362 4.96551C8.39751 4.97716 8.3811 4.9884 8.36441 4.99925C8.34773 5.0101 8.33077 5.02055 8.31357 5.03058C8.29636 5.04063 8.27889 5.05023 8.26119 5.05944C8.2435 5.06864 8.22559 5.07742 8.20743 5.08578C8.1893 5.09413 8.17095 5.10204 8.15241 5.10952C8.13388 5.11697 8.11517 5.124 8.09628 5.13058C8.07739 5.13716 8.05833 5.14328 8.03914 5.14896C8.01992 5.15464 8.00059 5.15984 7.98112 5.16458C7.96165 5.16933 7.94208 5.1736 7.9224 5.17742C7.90271 5.18121 7.88295 5.18456 7.8631 5.18742C7.84325 5.19029 7.82335 5.19267 7.80337 5.19458C7.78341 5.19649 7.7634 5.19795 7.74336 5.19891C7.72332 5.19986 7.70326 5.20034 7.68319 5.20034C7.66312 5.20034 7.64306 5.19986 7.62302 5.19891C7.60298 5.19795 7.58297 5.19649 7.56301 5.19458C7.54303 5.19267 7.52313 5.19029 7.50328 5.18742C7.48343 5.18456 7.46367 5.18121 7.44398 5.17742C7.4243 5.1736 7.40472 5.16933 7.38526 5.16458C7.36579 5.15984 7.34646 5.15464 7.32724 5.14896C7.30805 5.14328 7.28899 5.13716 7.2701 5.13058C7.25121 5.124 7.2325 5.11697 7.21396 5.10952C7.19543 5.10204 7.17708 5.09413 7.15895 5.08578C7.14079 5.07742 7.12288 5.06864 7.10518 5.05944C7.08749 5.05023 7.07001 5.04063 7.05281 5.03058C7.03561 5.02055 7.01865 5.0101 7.00197 4.99925C6.98528 4.9884 6.96887 4.97716 6.95276 4.96551C6.93664 4.9539 6.92083 4.94188 6.90532 4.92949C6.88981 4.91711 6.87462 4.90435 6.85973 4.89124C6.84488 4.87814 6.83034 4.86467 6.81617 4.85087C6.80196 4.83705 6.78814 4.82292 6.77465 4.80846C6.76118 4.79398 6.74809 4.7792 6.73536 4.76411C6.72263 4.74902 6.71028 4.73361 6.69831 4.71793C6.68637 4.70225 6.67481 4.68628 6.66366 4.67005C6.65251 4.65382 6.64179 4.63732 6.63146 4.62058C6.62116 4.60382 6.61126 4.58684 6.6018 4.56963C6.59234 4.55239 6.58331 4.53496 6.57475 4.51729C6.56617 4.49966 6.55804 4.4818 6.55035 4.46377C6.54266 4.44573 6.53547 4.42751 6.52871 4.40913C6.52194 4.39074 6.51565 4.3722 6.50981 4.35353C6.50401 4.33483 6.49863 4.31602 6.49375 4.29708C6.4889 4.27814 6.48449 4.25907 6.48059 4.23992C6.47666 4.22077 6.47323 4.20154 6.47028 4.18223C6.46734 4.16292 6.46488 4.14353 6.46292 4.12411C6.46096 4.10467 6.45948 4.0852 6.4585 4.06571C6.45752 4.04621 6.45703 4.02669 6.45703 4.00717C6.45703 3.98762 6.45752 3.96812 6.4585 3.9486C6.45948 3.9291 6.46096 3.90963 6.46292 3.89019C6.46488 3.87077 6.46734 3.85138 6.47028 3.83207C6.47323 3.81276 6.47666 3.79353 6.48059 3.77438C6.48449 3.75523 6.4889 3.73619 6.49375 3.71725C6.49863 3.69828 6.50401 3.67948 6.50981 3.6608C6.51565 3.6421 6.52194 3.62356 6.52871 3.60518C6.53547 3.5868 6.54266 3.56857 6.55035 3.55054C6.55804 3.5325 6.56617 3.51465 6.57475 3.49701C6.58331 3.47934 6.59234 3.46192 6.6018 3.4447C6.61126 3.42746 6.62116 3.41049 6.63146 3.39375C6.64179 3.37698 6.65251 3.36049 6.66366 3.34425C6.67481 3.32802 6.68637 3.31205 6.69831 3.29637C6.71028 3.2807 6.72263 3.26531 6.73536 3.25022C6.74809 3.2351 6.76118 3.22033 6.77465 3.20587C6.78814 3.19139 6.80196 3.17725 6.81617 3.16346C6.83034 3.14964 6.84488 3.13619 6.85973 3.12306C6.87462 3.10996 6.88981 3.0972 6.90532 3.08481C6.92083 3.07242 6.93664 3.06041 6.95276 3.04879C6.96887 3.03715 6.98528 3.0259 7.00197 3.01505C7.01865 3.0042 7.03561 2.99378 7.05281 2.98372C7.07001 2.9737 7.08749 2.96407 7.10518 2.95487C7.12288 2.94566 7.14079 2.93688 7.15895 2.92853C7.17708 2.92017 7.19543 2.91227 7.21396 2.90479C7.2325 2.89733 7.25121 2.8903 7.2701 2.88373C7.28899 2.87715 7.30805 2.87102 7.32724 2.86534C7.34646 2.85969 7.36579 2.85447 7.38526 2.84972C7.40472 2.845 7.4243 2.8407 7.44398 2.83691C7.46367 2.83309 7.48343 2.82975 7.50328 2.82688C7.52313 2.82402 7.54303 2.82163 7.56301 2.81972C7.58297 2.81781 7.60298 2.81638 7.62302 2.81542C7.64306 2.81444 7.66312 2.81396 7.68319 2.81396C7.70326 2.81396 7.72332 2.81444 7.74336 2.81542C7.7634 2.81638 7.78341 2.81781 7.80337 2.81972C7.82335 2.82163 7.84325 2.82402 7.8631 2.82688C7.88295 2.82975 7.90271 2.83309 7.9224 2.83691C7.94208 2.8407 7.96165 2.845 7.98112 2.84972C8.00059 2.85447 8.01992 2.85969 8.03914 2.86534C8.05833 2.87102 8.07739 2.87715 8.09628 2.88373C8.11517 2.8903 8.13388 2.89733 8.15241 2.90479C8.17095 2.91227 8.1893 2.92017 8.20743 2.92853C8.22559 2.93688 8.2435 2.94566 8.26119 2.95487C8.27889 2.96407 8.29636 2.9737 8.31357 2.98372C8.33077 2.99378 8.34773 3.0042 8.36441 3.01505C8.3811 3.0259 8.39751 3.03715 8.41362 3.04879C8.42974 3.06041 8.44555 3.07242 8.46106 3.08481C8.47657 3.0972 8.49176 3.10996 8.50664 3.12306C8.5215 3.13619 8.53603 3.14964 8.55021 3.16346C8.56441 3.17725 8.57824 3.19139 8.59173 3.20587C8.6052 3.22033 8.61831 3.2351 8.63105 3.25022C8.64375 3.26531 8.6561 3.2807 8.66807 3.29637C8.68001 3.31205 8.69157 3.32802 8.70272 3.34425C8.71387 3.36049 8.72459 3.37698 8.73492 3.39375C8.74522 3.41049 8.75512 3.42746 8.76458 3.4447C8.77404 3.46192 8.78306 3.47934 8.79163 3.49701C8.80021 3.51465 8.80834 3.5325 8.81603 3.55054C8.82371 3.56857 8.83091 3.5868 8.83767 3.60518C8.84443 3.62356 8.85073 3.6421 8.85657 3.6608C8.8624 3.67948 8.86774 3.69828 8.87262 3.71725C8.87748 3.73619 8.88189 3.75523 8.88579 3.77438C8.88972 3.79353 8.89315 3.81276 8.8961 3.83207C8.89904 3.85138 8.9015 3.87077 8.90346 3.89019C8.90542 3.90963 8.90689 3.9291 8.90788 3.9486C8.90886 3.96812 8.90937 3.98762 8.90937 4.00717Z" fill="white"/>
<mask id="mask0_4126_412230" style="mask-type:luminance" maskUnits="userSpaceOnUse" x="0" y="5" width="11" height="10">
<path d="M0.607422 5.03125H10.3506V14.639H0.607422V5.03125Z" fill="white"/>
</mask>
<g mask="url(#mask0_4126_412230)">
<path d="M0.607422 11.6163C0.607422 11.9671 0.899737 12.2516 1.26026 12.2516H3.96795C4.20514 12.2516 4.42368 12.1264 4.53873 11.9247L5.45982 10.3103C5.50529 10.3015 5.54981 10.2899 5.59333 10.275L7.09948 11.3511L6.81823 13.9359C6.78023 14.2849 7.0401 14.5977 7.39866 14.6346C7.42211 14.637 7.44528 14.6382 7.46824 14.6382C7.7979 14.6382 8.08117 14.3959 8.11664 14.0698L8.43739 11.122C8.46187 10.8972 8.36173 10.6767 8.17454 10.543L6.36296 9.24873L7.07093 7.381L7.33617 8.29797C7.39817 8.5124 7.58585 8.67014 7.8129 8.69869L9.70269 8.93616C9.72756 8.93927 9.75218 8.94083 9.77658 8.94083C10.0595 8.94083 10.3052 8.73632 10.3424 8.45606C10.3828 8.15161 10.1619 7.87288 9.84904 7.83357L8.33365 7.64315L7.87348 6.05207C7.79425 5.77826 7.59869 5.54879 7.33683 5.42253L6.65441 5.09338C6.47954 5.00895 6.28158 5.02039 6.12275 5.10638L3.77744 5.87017C3.6442 5.91353 3.53196 6.00324 3.46239 6.12202L2.37881 7.97259C2.22262 8.23938 2.31824 8.57882 2.59229 8.73081C2.68157 8.78025 2.77871 8.8038 2.87457 8.8038C3.07318 8.8038 3.26609 8.70288 3.37146 8.52306L4.34699 6.85698L5.29954 6.54677L4.35155 9.04762C4.27368 9.25303 4.27412 9.46754 4.33655 9.66144L3.58368 10.981H1.26026C0.899737 10.981 0.607422 11.2655 0.607422 11.6163Z" fill="white"/>
</g>
<mask id="mask1_4126_412230" style="mask-type:luminance" maskUnits="userSpaceOnUse" x="3" y="0" width="10" height="15">
<path d="M3.93555 0.344238H12.3579V14.1162H3.93555V0.344238Z" fill="white"/>
</mask>
<g mask="url(#mask1_4126_412230)">
<path d="M12.1164 0.344238H4.18818C4.05296 0.344238 3.94336 0.450869 3.94336 0.582486V5.13226C3.94336 5.26386 4.05296 5.37051 4.18818 5.37051C4.32343 5.37051 4.433 5.26386 4.433 5.13226V0.820707H11.8716V13.6366H8.87122C8.73597 13.6366 8.6264 13.7433 8.6264 13.8748C8.6264 14.0065 8.73597 14.1131 8.87122 14.1131H12.1164C12.2516 14.1131 12.3612 14.0065 12.3612 13.8748V0.582486C12.3612 0.450869 12.2516 0.344238 12.1164 0.344238Z" fill="white"/>
</g>
<path d="M4.19014 12.5337C4.05491 12.5337 3.94531 12.6403 3.94531 12.7719V13.8746C3.94531 14.0062 4.05491 14.1129 4.19014 14.1129H6.10251C6.23776 14.1129 6.34733 14.0062 6.34733 13.8746C6.34733 13.743 6.23776 13.6364 6.10251 13.6364H4.43496V12.7719C4.43496 12.6403 4.32539 12.5337 4.19014 12.5337Z" fill="white"/>
<path d="M2.0332 3.31152H4.04236" stroke="white" stroke-width="0.0148531"/>
</g>
<defs>
<clipPath id="clip0_4126_412230">
<rect width="11.762" height="14.3057" fill="white" transform="translate(0.609375 0.338379)"/>
</clipPath>
</defs>
</svg>
