<svg width="21" height="20" viewBox="0 0 21 20" fill="none" xmlns="http://www.w3.org/2000/svg">
<path d="M6.86328 7.13867H15.0659" stroke="white" stroke-opacity="0.6" stroke-width="1.55906" stroke-linecap="round" stroke-linejoin="round"/>
<path d="M5.83789 11.2969H6.86322" stroke="white" stroke-opacity="0.6" stroke-width="1.55906" stroke-linecap="round" stroke-linejoin="round"/>
<path d="M15.0664 11.2969H16.0917" stroke="white" stroke-opacity="0.6" stroke-width="1.55906" stroke-linecap="round" stroke-linejoin="round"/>
<path d="M1.73633 15.4536V8.60461C1.73633 8.32315 1.79274 8.04449 1.90213 7.78579L4.27965 2.16223C4.60279 1.39791 5.34419 0.902344 6.1645 0.902344H15.764C16.5844 0.902344 17.3257 1.39791 17.6489 2.16223L20.0264 7.78579C20.1358 8.04449 20.1922 8.32315 20.1922 8.60461V15.4536M1.73633 15.4536V17.948C1.73633 18.2925 2.01176 18.5717 2.35152 18.5717H5.22244C5.5622 18.5717 5.83763 18.2925 5.83763 17.948V15.4536M1.73633 15.4536H5.83763M20.1922 15.4536V17.948C20.1922 18.2925 19.9168 18.5717 19.577 18.5717H16.7061C16.3663 18.5717 16.0909 18.2925 16.0909 17.948V15.4536M20.1922 15.4536H16.0909M5.83763 15.4536H16.0909" stroke="white" stroke-opacity="0.6" stroke-width="1.55906"/>
</svg>
