<svg width="56" height="52" viewBox="0 0 56 52" fill="none" xmlns="http://www.w3.org/2000/svg">
<path d="M52.5332 37.6979V48.8603M52.5332 43.2791H44.4982C43.3715 43.2791 42.8081 43.2791 42.3252 43.0938C41.8986 42.93 41.5187 42.6638 41.219 42.3189C40.8797 41.9285 40.6872 41.3988 40.3021 40.3401L35.7897 27.9309M16.2555 33.5121L11.4094 35.9351C10.1611 36.5594 9.53717 36.8714 8.92213 36.8895C8.38047 36.9057 7.8458 36.7636 7.3834 36.481C6.85849 36.16 6.47144 35.5796 5.69733 34.4184L5.10824 33.5347C4.13851 32.0802 3.65379 31.353 3.5963 30.6299C3.54579 29.9951 3.71378 29.3622 4.07265 28.8362C4.48147 28.2367 5.26311 27.8461 6.8264 27.0644L7.88375 26.5356M50.1336 15.4456L44.9122 6.49453C44.1576 5.20101 43.7804 4.55426 43.2394 4.19548C42.7633 3.87969 42.2017 3.71764 41.6306 3.73126C40.9816 3.74669 40.3178 4.09303 38.9901 4.78574L16.9576 16.2809C14.8719 17.3691 13.8291 17.9132 13.4233 18.684C13.0687 19.3572 13.0045 20.146 13.2453 20.8678C13.521 21.6941 14.462 22.3999 16.344 23.8114L25.2102 30.4611C26.0117 31.0622 26.4124 31.3627 26.8578 31.5059C27.2515 31.6326 27.6684 31.6703 28.0784 31.6161C28.5422 31.5547 28.9901 31.3307 29.8861 30.8828L48.2737 21.6889C49.7551 20.9482 50.4958 20.5779 50.8998 20.0079C51.2548 19.5071 51.4347 18.9031 51.4116 18.2896C51.3855 17.5916 50.9682 16.8763 50.1336 15.4456Z" stroke="white" stroke-width="5.58117" stroke-linecap="round" stroke-linejoin="round"/>
</svg>
