<svg width="35" height="35" viewBox="0 0 35 35" fill="none" xmlns="http://www.w3.org/2000/svg">
<path d="M32.7451 0.739258H1.62268C0.874219 0.739258 0.269531 1.34395 0.269531 2.09241V33.2148C0.269531 33.9633 0.874219 34.5679 1.62268 34.5679H32.7451C33.4935 34.5679 34.0982 33.9633 34.0982 33.2148V2.09241C34.0982 1.34395 33.4935 0.739258 32.7451 0.739258ZM31.0536 31.5234H3.31411V3.78384H31.0536V31.5234ZM9.91071 24.8845V28.1405C9.91071 28.3265 10.0629 28.4788 10.249 28.4788H12.2787C12.4648 28.4788 12.617 28.3265 12.617 28.1405V24.8845C12.1899 25.024 11.7375 25.0959 11.2639 25.0959C10.7903 25.0959 10.3378 25.0198 9.91071 24.8845ZM12.617 16.5119V7.16671C12.617 6.98065 12.4648 6.82842 12.2787 6.82842H10.249C10.0629 6.82842 9.91071 6.98065 9.91071 7.16671V16.5119C10.3378 16.3723 10.7903 16.3005 11.2639 16.3005C11.7375 16.3005 12.1899 16.3766 12.617 16.5119ZM9.91071 24.8845C10.3378 25.024 10.7903 25.0959 11.2639 25.0959C11.7375 25.0959 12.1899 25.0198 12.617 24.8845C14.3845 24.3136 15.6616 22.656 15.6616 20.6982C15.6616 18.7403 14.3845 17.0827 12.617 16.5119C12.1899 16.3723 11.7375 16.3005 11.2639 16.3005C10.7903 16.3005 10.3378 16.3766 9.91071 16.5119C8.14316 17.0827 6.86612 18.7403 6.86612 20.6982C6.86612 22.656 8.14316 24.3136 9.91071 24.8845ZM9.91493 19.992C9.92762 19.9666 9.94453 19.9413 9.95722 19.9159V19.9117L10.008 19.8355C10.0122 19.8271 10.0164 19.8229 10.0206 19.8144C10.0333 19.7933 10.0502 19.7763 10.0629 19.7552C10.0672 19.751 10.0714 19.7425 10.0756 19.7383C10.0968 19.7129 10.1137 19.6918 10.1348 19.6706L10.1475 19.6579L10.1982 19.6072L10.2152 19.5903C10.2363 19.5691 10.2574 19.5522 10.2828 19.5311C10.3082 19.5099 10.3293 19.493 10.3547 19.4761C10.3632 19.4719 10.3674 19.4677 10.3758 19.4634C10.397 19.4507 10.4139 19.4338 10.435 19.4211C10.4393 19.4169 10.4477 19.4127 10.452 19.4085C10.4773 19.3915 10.5027 19.3789 10.5323 19.3619C10.5365 19.3577 10.545 19.3577 10.5492 19.3535C10.5704 19.3408 10.5915 19.3323 10.6169 19.3197L10.6423 19.307C10.6719 19.2943 10.6972 19.2816 10.7268 19.2731C10.7564 19.2605 10.786 19.252 10.8156 19.2435C10.8241 19.2393 10.8325 19.2393 10.841 19.2351C10.8664 19.2266 10.8875 19.2224 10.9129 19.2182C10.9213 19.2182 10.9256 19.2139 10.934 19.2139C10.9636 19.2055 10.9975 19.2013 11.0271 19.197C11.0355 19.197 11.0397 19.197 11.0482 19.1928C11.0736 19.1886 11.0989 19.1886 11.1243 19.1843H11.1497C11.1835 19.1843 11.2131 19.1801 11.2469 19.1801C11.2808 19.1801 11.3104 19.1801 11.3442 19.1843H11.3696C11.3949 19.1843 11.4203 19.1886 11.4457 19.1928C11.4541 19.1928 11.4584 19.1928 11.4668 19.197C11.4964 19.2013 11.5303 19.2055 11.5599 19.2139C11.5683 19.2139 11.5725 19.2182 11.581 19.2182C11.6064 19.2224 11.6317 19.2309 11.6529 19.2351C11.6613 19.2393 11.6698 19.2393 11.6783 19.2435C11.7079 19.252 11.7375 19.2605 11.7671 19.2731C11.7967 19.2816 11.822 19.2943 11.8516 19.307L11.877 19.3197C11.8981 19.3281 11.9235 19.3408 11.9447 19.3535C11.9489 19.3577 11.9573 19.3577 11.9616 19.3619C11.9869 19.3746 12.0165 19.3915 12.0419 19.4085C12.0461 19.4127 12.0546 19.4169 12.0588 19.4211C12.08 19.4338 12.1011 19.4465 12.118 19.4634C12.1265 19.4677 12.1307 19.4719 12.1392 19.4761C12.1645 19.493 12.1899 19.5142 12.2111 19.5311C12.2322 19.548 12.2576 19.5691 12.2787 19.5903L12.2956 19.6072L12.3464 19.6579L12.3591 19.6706C12.3802 19.6918 12.4013 19.7171 12.4183 19.7383C12.4225 19.7425 12.4267 19.751 12.4309 19.7552C12.4479 19.7721 12.4605 19.7933 12.4732 19.8144C12.4775 19.8229 12.4817 19.8271 12.4859 19.8355L12.5367 19.9117C12.5367 19.9117 12.5367 19.9159 12.5409 19.9159C12.6819 20.1525 12.7564 20.4228 12.7565 20.6982C12.7565 20.9519 12.6931 21.1929 12.5832 21.4044C12.5705 21.4297 12.5536 21.4551 12.5409 21.4805C12.5409 21.4805 12.5409 21.4847 12.5367 21.4847L12.4859 21.5608C12.4817 21.5693 12.4775 21.5735 12.4732 21.582C12.4605 21.6031 12.4436 21.62 12.4309 21.6412C12.4267 21.6454 12.4225 21.6538 12.4183 21.6581C12.3971 21.6834 12.3802 21.7046 12.3591 21.7257L12.3464 21.7384L12.2956 21.7892L12.2787 21.8061C12.2576 21.8272 12.2364 21.8441 12.2111 21.8653C12.1857 21.8864 12.1645 21.9033 12.1392 21.9202C12.1307 21.9245 12.1265 21.9287 12.118 21.9329C12.0969 21.9456 12.08 21.9625 12.0588 21.9752C12.0546 21.9794 12.0461 21.9837 12.0419 21.9879C12.0165 22.0048 11.9912 22.0175 11.9616 22.0344C11.9573 22.0386 11.9489 22.0386 11.9447 22.0429C11.9235 22.0556 11.9024 22.064 11.877 22.0767L11.8516 22.0894C11.822 22.1021 11.7967 22.1148 11.7671 22.1232C11.7375 22.1359 11.7079 22.1444 11.6783 22.1528C11.6698 22.157 11.6613 22.157 11.6529 22.1613C11.6275 22.1697 11.6064 22.174 11.581 22.1782C11.5725 22.1782 11.5683 22.1824 11.5599 22.1824C11.5303 22.1909 11.4964 22.1951 11.4668 22.1993C11.4584 22.1993 11.4541 22.1993 11.4457 22.2036C11.4203 22.2078 11.3949 22.2078 11.3696 22.212H11.3442C11.3104 22.212 11.2808 22.2162 11.2469 22.2162C11.2131 22.2162 11.1835 22.2162 11.1497 22.212H11.1243C11.0989 22.212 11.0736 22.2078 11.0482 22.2036C11.0397 22.2036 11.0355 22.2036 11.0271 22.1993C10.9975 22.1951 10.9636 22.1909 10.934 22.1824C10.9256 22.1824 10.9213 22.1782 10.9129 22.1782C10.8875 22.174 10.8621 22.1655 10.841 22.1613C10.8325 22.157 10.8241 22.157 10.8156 22.1528C10.786 22.1444 10.7564 22.1359 10.7268 22.1232C10.6972 22.1148 10.6719 22.1021 10.6423 22.0894L10.6169 22.0767C10.5957 22.0682 10.5704 22.0556 10.5492 22.0429C10.545 22.0386 10.5365 22.0386 10.5323 22.0344C10.5069 22.0217 10.4773 22.0048 10.452 21.9879C10.4477 21.9837 10.4393 21.9794 10.435 21.9752C10.4139 21.9625 10.3928 21.9498 10.3758 21.9329C10.3674 21.9287 10.3632 21.9245 10.3547 21.9202C10.3293 21.9033 10.304 21.8822 10.2828 21.8653C10.2617 21.8484 10.2363 21.8272 10.2152 21.8061L10.1982 21.7892L10.1475 21.7384L10.1348 21.7257C10.1137 21.7046 10.0925 21.6792 10.0756 21.6581C10.0714 21.6538 10.0672 21.6454 10.0629 21.6412C10.046 21.6242 10.0333 21.6031 10.0206 21.582C10.0164 21.5735 10.0122 21.5693 10.008 21.5608L9.95722 21.4847V21.4805C9.94031 21.4551 9.92762 21.4297 9.91493 21.4044C9.80499 21.1929 9.74156 20.9519 9.74156 20.6982C9.74156 20.4445 9.80499 20.2034 9.91493 19.992ZM21.7507 18.7953V28.1405C21.7507 28.3265 21.903 28.4788 22.089 28.4788H24.1188C24.3048 28.4788 24.457 28.3265 24.457 28.1405V18.7953C24.03 18.9349 23.5775 19.0067 23.1039 19.0067C22.6303 19.0067 22.1778 18.9306 21.7507 18.7953ZM24.457 10.4227V7.16671C24.457 6.98065 24.3048 6.82842 24.1188 6.82842H22.089C21.903 6.82842 21.7507 6.98065 21.7507 7.16671V10.4227C22.1778 10.2832 22.6303 10.2113 23.1039 10.2113C23.5775 10.2113 24.03 10.2874 24.457 10.4227ZM21.7507 18.7953C22.1778 18.9349 22.6303 19.0067 23.1039 19.0067C23.5775 19.0067 24.03 18.9306 24.457 18.7953C26.2246 18.2245 27.5016 16.5669 27.5016 14.609C27.5016 12.6512 26.2246 10.9936 24.457 10.4227C24.03 10.2832 23.5775 10.2113 23.1039 10.2113C22.6303 10.2113 22.1778 10.2874 21.7507 10.4227C19.9832 10.9936 18.7062 12.6512 18.7062 14.609C18.7062 16.5669 19.9832 18.2245 21.7507 18.7953ZM21.755 13.9028C21.7677 13.8775 21.7846 13.8521 21.7973 13.8267V13.8225L21.848 13.7464C21.8522 13.7379 21.8565 13.7337 21.8607 13.7252C21.8734 13.7041 21.8903 13.6872 21.903 13.666C21.9072 13.6618 21.9114 13.6534 21.9157 13.6491C21.9368 13.6238 21.9537 13.6026 21.9749 13.5815L21.9875 13.5688L22.0383 13.518L22.0552 13.5011C22.0763 13.48 22.0975 13.4631 22.1229 13.4419C22.1482 13.4208 22.1694 13.4039 22.1947 13.387C22.2032 13.3827 22.2074 13.3785 22.2159 13.3743C22.237 13.3616 22.2539 13.3447 22.2751 13.332C22.2793 13.3278 22.2878 13.3235 22.292 13.3193C22.3174 13.3024 22.3427 13.2897 22.3723 13.2728C22.3766 13.2686 22.385 13.2686 22.3893 13.2643C22.4104 13.2516 22.4315 13.2432 22.4569 13.2305L22.4823 13.2178C22.5119 13.2051 22.5373 13.1924 22.5669 13.184C22.5965 13.1713 22.6261 13.1628 22.6557 13.1544C22.6641 13.1502 22.6726 13.1502 22.681 13.1459C22.7064 13.1375 22.7275 13.1332 22.7529 13.129C22.7614 13.129 22.7656 13.1248 22.7741 13.1248C22.8037 13.1163 22.8375 13.1121 22.8671 13.1079C22.8755 13.1079 22.8798 13.1079 22.8882 13.1036C22.9136 13.0994 22.939 13.0994 22.9643 13.0952H22.9897C23.0235 13.0952 23.0531 13.091 23.087 13.091C23.1208 13.091 23.1504 13.091 23.1842 13.0952H23.2096C23.235 13.0952 23.2603 13.0994 23.2857 13.1036C23.2942 13.1036 23.2984 13.1036 23.3069 13.1079C23.3365 13.1121 23.3703 13.1163 23.3999 13.1248C23.4083 13.1248 23.4126 13.129 23.421 13.129C23.4464 13.1332 23.4718 13.1417 23.4929 13.1459C23.5014 13.1502 23.5098 13.1502 23.5183 13.1544C23.5479 13.1628 23.5775 13.1713 23.6071 13.184C23.6367 13.1924 23.6621 13.2051 23.6917 13.2178L23.717 13.2305C23.7382 13.239 23.7635 13.2516 23.7847 13.2643C23.7889 13.2686 23.7974 13.2686 23.8016 13.2728C23.827 13.2855 23.8566 13.3024 23.882 13.3193C23.8862 13.3235 23.8946 13.3278 23.8989 13.332C23.92 13.3447 23.9412 13.3574 23.9581 13.3743C23.9665 13.3785 23.9708 13.3827 23.9792 13.387C24.0046 13.4039 24.03 13.425 24.0511 13.4419C24.0722 13.4588 24.0976 13.48 24.1188 13.5011L24.1357 13.518L24.1864 13.5688L24.1991 13.5815C24.2202 13.6026 24.2414 13.628 24.2583 13.6491C24.2625 13.6534 24.2668 13.6618 24.271 13.666C24.2879 13.683 24.3006 13.7041 24.3133 13.7252C24.3175 13.7337 24.3217 13.7379 24.326 13.7464L24.3767 13.8225V13.8267C24.5177 14.0633 24.5922 14.3336 24.5924 14.609C24.5924 14.8627 24.5289 15.1038 24.419 15.3152C24.4063 15.3406 24.3894 15.3659 24.3767 15.3913V15.3955L24.326 15.4716C24.3217 15.4801 24.3175 15.4843 24.3133 15.4928C24.3006 15.5139 24.2837 15.5308 24.271 15.552C24.2668 15.5562 24.2625 15.5647 24.2583 15.5689C24.2372 15.5943 24.2202 15.6154 24.1991 15.6366L24.1864 15.6492L24.1357 15.7L24.1188 15.7169C24.0976 15.7381 24.0765 15.755 24.0511 15.7761C24.0257 15.7973 24.0046 15.8142 23.9792 15.8311C23.9708 15.8353 23.9665 15.8395 23.9581 15.8438C23.9369 15.8565 23.92 15.8734 23.8989 15.8861C23.8946 15.8903 23.8862 15.8945 23.882 15.8987C23.8566 15.9157 23.8312 15.9283 23.8016 15.9453C23.7974 15.9495 23.7889 15.9495 23.7847 15.9537C23.7635 15.9664 23.7424 15.9749 23.717 15.9875L23.6917 16.0002C23.6621 16.0129 23.6367 16.0256 23.6071 16.0341C23.5775 16.0467 23.5479 16.0552 23.5183 16.0637C23.5098 16.0679 23.5014 16.0679 23.4929 16.0721C23.4676 16.0806 23.4464 16.0848 23.421 16.089C23.4126 16.089 23.4083 16.0933 23.3999 16.0933C23.3703 16.1017 23.3365 16.1059 23.3069 16.1102C23.2984 16.1102 23.2942 16.1102 23.2857 16.1144C23.2603 16.1186 23.235 16.1186 23.2096 16.1229H23.1842C23.1504 16.1229 23.1208 16.1271 23.087 16.1271C23.0531 16.1271 23.0235 16.1271 22.9897 16.1229H22.9643C22.939 16.1229 22.9136 16.1186 22.8882 16.1144C22.8798 16.1144 22.8755 16.1144 22.8671 16.1102C22.8375 16.1059 22.8037 16.1017 22.7741 16.0933C22.7656 16.0933 22.7614 16.089 22.7529 16.089C22.7275 16.0848 22.7022 16.0763 22.681 16.0721C22.6726 16.0679 22.6641 16.0679 22.6557 16.0637C22.6261 16.0552 22.5965 16.0467 22.5669 16.0341C22.5373 16.0256 22.5119 16.0129 22.4823 16.0002L22.4569 15.9875C22.4358 15.9791 22.4104 15.9664 22.3893 15.9537C22.385 15.9495 22.3766 15.9495 22.3723 15.9453C22.347 15.9326 22.3174 15.9157 22.292 15.8987C22.2878 15.8945 22.2793 15.8903 22.2751 15.8861C22.2539 15.8734 22.2328 15.8607 22.2159 15.8438C22.2074 15.8395 22.2032 15.8353 22.1947 15.8311C22.1694 15.8142 22.144 15.793 22.1229 15.7761C22.1017 15.7592 22.0763 15.7381 22.0552 15.7169L22.0383 15.7L21.9875 15.6492L21.9749 15.6366C21.9537 15.6154 21.9326 15.59 21.9157 15.5689C21.9114 15.5647 21.9072 15.5562 21.903 15.552C21.8861 15.5351 21.8734 15.5139 21.8607 15.4928C21.8565 15.4843 21.8522 15.4801 21.848 15.4716L21.7973 15.3955V15.3913C21.7803 15.3659 21.7677 15.3406 21.755 15.3152C21.645 15.1038 21.5816 14.8627 21.5816 14.609C21.5816 14.3553 21.645 14.1143 21.755 13.9028Z" fill="#92929D"/>
</svg>
