<svg width="26" height="26" viewBox="0 0 26 26" fill="none" xmlns="http://www.w3.org/2000/svg">
<path d="M19.8616 13.4962C19.6475 12.9881 19.4046 12.4117 19.1674 11.7004C18.5466 9.83932 20.5304 7.80869 20.5492 7.78951L19.438 6.67833C19.3274 6.78882 16.7477 9.41111 17.6764 12.1976C17.9326 12.9662 18.1882 13.5721 18.4135 14.1072C18.9378 15.1434 19.2099 16.2887 19.2077 17.4499C19.1157 18.3859 18.7564 19.2757 18.1727 20.0132C17.589 20.7507 16.8055 21.3048 15.9157 21.6094C16.1967 20.5074 16.1924 19.3519 15.9032 18.2519C15.6139 17.152 15.0493 16.1439 14.2624 15.3226L13.4417 14.5018L12.9847 15.5686C11.5417 18.9352 9.82473 20.4047 8.81468 21.0177C8.1948 20.638 7.6739 20.1166 7.29483 19.4964C6.91575 18.8761 6.68933 18.1747 6.63419 17.4499C6.68834 16.4607 6.9363 15.4918 7.36401 14.5982C7.87145 13.521 8.15772 12.3529 8.20589 11.1632V9.76568C8.89232 10.0486 9.77758 10.7902 9.77758 12.7348V14.7808L11.1475 13.2609C13.5929 10.5461 13.0825 7.31376 12.0952 5.16031C12.846 5.4106 13.4907 5.90627 13.9256 6.5675C14.3605 7.22874 14.5602 8.01708 14.4927 8.80561H16.0643C16.0643 4.4543 12.4663 3.30469 10.5634 3.30469H8.99173L9.93412 4.56094C10.0423 4.70679 12.1838 7.64759 10.9978 10.6025C10.7339 9.85988 10.2503 9.21508 9.61128 8.75376C8.97225 8.29245 8.208 8.03645 7.42004 8.01977H6.63419V11.1632C6.58005 12.1524 6.33208 13.1213 5.90438 14.0149C5.39694 15.0921 5.11067 16.2602 5.0625 17.4499C5.0625 20.4736 8.06695 23.7367 12.921 23.7367C17.775 23.7367 20.7794 20.4736 20.7794 17.4499C20.7806 16.0791 20.4666 14.7263 19.8616 13.4962ZM10.4339 21.7928C11.8835 20.5927 13.0544 19.0913 13.8653 17.3931C14.2985 18.0924 14.5446 18.8913 14.58 19.7131C14.6154 20.5349 14.4389 21.352 14.0675 22.0859C13.6874 22.137 13.3045 22.1634 12.921 22.165C12.0776 22.1709 11.2386 22.0453 10.4339 21.7928Z" fill="#92929D"/>
</svg>
