<svg width="45" height="45" viewBox="0 0 45 45" fill="none" xmlns="http://www.w3.org/2000/svg">
<path d="M3.96317 31.7196C4.79671 31.7196 5.59611 32.0507 6.18551 32.6401C6.77491 33.2295 7.10603 34.0289 7.10603 34.8624V41.1482C7.10603 41.9817 6.77491 42.7811 6.18551 43.3705C5.59611 43.9599 4.79671 44.291 3.96317 44.291C3.12963 44.291 2.33023 43.9599 1.74083 43.3705C1.15143 42.7811 0.820313 41.9817 0.820312 41.1482V34.8624C0.820313 34.0289 1.15143 33.2295 1.74083 32.6401C2.33023 32.0507 3.12963 31.7196 3.96317 31.7196ZM16.5346 19.1482C17.3681 19.1482 18.1675 19.4793 18.7569 20.0687C19.3463 20.6581 19.6775 21.4575 19.6775 22.291V41.1482C19.6775 41.9817 19.3463 42.7811 18.7569 43.3705C18.1675 43.9599 17.3681 44.291 16.5346 44.291C15.7011 44.291 14.9017 43.9599 14.3123 43.3705C13.7229 42.7811 13.3917 41.9817 13.3917 41.1482V22.291C13.3917 21.4575 13.7229 20.6581 14.3123 20.0687C14.9017 19.4793 15.7011 19.1482 16.5346 19.1482ZM29.106 6.57673C29.9396 6.57673 30.739 6.90785 31.3284 7.49725C31.9178 8.08665 32.2489 8.88605 32.2489 9.71959V41.1482C32.2489 41.9817 31.9178 42.7811 31.3284 43.3705C30.739 43.9599 29.9396 44.291 29.106 44.291C28.2725 44.291 27.4731 43.9599 26.8837 43.3705C26.2943 42.7811 25.9632 41.9817 25.9632 41.1482V9.71959C25.9632 8.88605 26.2943 8.08665 26.8837 7.49725C27.4731 6.90785 28.2725 6.57673 29.106 6.57673ZM41.6775 0.291016C42.511 0.291016 43.3104 0.622137 43.8998 1.21154C44.4892 1.80094 44.8203 2.60034 44.8203 3.43387V41.1482C44.8203 41.9817 44.4892 42.7811 43.8998 43.3705C43.3104 43.9599 42.511 44.291 41.6775 44.291C40.8439 44.291 40.0445 43.9599 39.4551 43.3705C38.8657 42.7811 38.5346 41.9817 38.5346 41.1482V3.43387C38.5346 2.60034 38.8657 1.80094 39.4551 1.21154C40.0445 0.622137 40.8439 0.291016 41.6775 0.291016Z" fill="#86BC73"/>
</svg>
