<svg width="28" height="28" viewBox="0 0 28 28" fill="none" xmlns="http://www.w3.org/2000/svg">
<mask id="mask0_2216_200518" style="mask-type:alpha" maskUnits="userSpaceOnUse" x="0" y="0" width="28" height="28">
<rect x="0.0273438" y="0.388672" width="27.1333" height="27.1333" fill="#D9D9D9"/>
</mask>
<g mask="url(#mask0_2216_200518)">
<path d="M5.67743 21.8693C5.35711 21.8693 5.08841 21.7608 4.87134 21.5437C4.65503 21.3274 4.54688 21.0591 4.54688 20.7388C4.54688 20.4185 4.65503 20.1501 4.87134 19.9338C5.08841 19.7168 5.35711 19.6082 5.67743 19.6082H6.80799V11.6943C6.80799 10.1304 7.27905 8.74058 8.22118 7.52486C9.16331 6.30989 10.3881 5.51398 11.8955 5.13712V4.34574C11.8955 3.87467 12.0605 3.47445 12.3907 3.14509C12.72 2.81496 13.1203 2.6499 13.5913 2.6499C14.0624 2.6499 14.4626 2.81496 14.792 3.14509C15.1221 3.47445 15.2872 3.87467 15.2872 4.34574V5.13712C16.7946 5.51398 18.0193 6.30989 18.9615 7.52486C19.9036 8.74058 20.3747 10.1304 20.3747 11.6943V19.6082H21.5052C21.8255 19.6082 22.0939 19.7168 22.3102 19.9338C22.5272 20.1501 22.6358 20.4185 22.6358 20.7388C22.6358 21.0591 22.5272 21.3274 22.3102 21.5437C22.0939 21.7608 21.8255 21.8693 21.5052 21.8693H5.67743ZM13.5913 25.261C12.9695 25.261 12.4374 25.0398 11.995 24.5974C11.5518 24.1542 11.3302 23.6217 11.3302 22.9999H15.8524C15.8524 23.6217 15.6312 24.1542 15.1888 24.5974C14.7456 25.0398 14.2131 25.261 13.5913 25.261ZM9.0691 19.6082H18.1135V11.6943C18.1135 10.4507 17.6707 9.38613 16.7851 8.50053C15.8995 7.61493 14.8349 7.17212 13.5913 7.17212C12.3477 7.17212 11.2831 7.61493 10.3975 8.50053C9.5119 9.38613 9.0691 10.4507 9.0691 11.6943V19.6082Z" fill="#92929D"/>
</g>
</svg>
