<svg width="46" height="51" viewBox="0 0 46 51" fill="none" xmlns="http://www.w3.org/2000/svg">
<path d="M22.7305 25.291C29.0817 25.291 34.2305 20.1423 34.2305 13.791C34.2305 7.43974 29.0817 2.29102 22.7305 2.29102C16.3792 2.29102 11.2305 7.43974 11.2305 13.791C11.2305 20.1423 16.3792 25.291 22.7305 25.291Z" stroke="#92929D" stroke-width="4.6"/>
<path d="M34.2305 29.8906H35.0394C38.5191 29.8906 41.4543 32.4818 41.886 35.9348L42.7842 43.12C43.1274 45.8655 40.9865 48.2906 38.2196 48.2906H7.24129C4.47441 48.2906 2.33364 45.8655 2.67682 43.12L3.57497 35.9348C4.00659 32.4818 6.94187 29.8906 10.4217 29.8906H11.2305" stroke="#92929D" stroke-width="4.6" stroke-linecap="round" stroke-linejoin="round"/>
</svg>
