<svg width="34" height="33" viewBox="0 0 34 33" fill="none" xmlns="http://www.w3.org/2000/svg">
<path d="M32.3031 0.16748H1.76028C1.2173 0.16748 0.742188 0.642591 0.742188 1.18557V4.57922C0.742188 5.12221 1.2173 5.59732 1.76028 5.59732H32.3031C32.8461 5.59732 33.3212 5.12221 33.3212 4.57922V1.18557C33.3212 0.642591 32.8461 0.16748 32.3031 0.16748Z" fill="#92929D"/>
<path d="M13.3005 8.3125H8.54934C8.00636 8.3125 7.53125 8.78761 7.53125 9.33059V11.3668C7.53125 11.9098 8.00636 12.3849 8.54934 12.3849H13.3005C13.8434 12.3849 14.3185 11.9098 14.3185 11.3668V9.33059C14.3185 8.78761 13.8434 8.3125 13.3005 8.3125Z" fill="#92929D"/>
<path d="M22.8005 8.3125H18.0493C17.5064 8.3125 17.0312 8.78761 17.0312 9.33059V11.3668C17.0312 11.9098 17.5064 12.3849 18.0493 12.3849H22.8005C23.3434 12.3849 23.8185 11.9098 23.8185 11.3668V9.33059C23.8185 8.78761 23.3434 8.3125 22.8005 8.3125Z" fill="#92929D"/>
<path d="M32.3044 8.3125H27.5533C27.0103 8.3125 26.5352 8.78761 26.5352 9.33059V11.3668C26.5352 11.9098 27.0103 12.3849 27.5533 12.3849H32.3044C32.8473 12.3849 33.3225 11.9098 33.3225 11.3668V9.33059C33.3225 8.78761 32.8473 8.3125 32.3044 8.3125Z" fill="#92929D"/>
<path d="M13.3005 21.8867H8.54934C8.00636 21.8867 7.53125 22.3618 7.53125 22.9048V24.941C7.53125 25.484 8.00636 25.9591 8.54934 25.9591H13.3005C13.8434 25.9591 14.3185 25.484 14.3185 24.941V22.9048C14.3185 22.3618 13.8434 21.8867 13.3005 21.8867Z" fill="#92929D"/>
<path d="M22.8005 21.8867H18.0493C17.5064 21.8867 17.0312 22.3618 17.0312 22.9048V24.941C17.0312 25.484 17.5064 25.9591 18.0493 25.9591H22.8005C23.3434 25.9591 23.8185 25.484 23.8185 24.941V22.9048C23.8185 22.3618 23.3434 21.8867 22.8005 21.8867Z" fill="#92929D"/>
<path d="M32.3044 21.8867H27.5533C27.0103 21.8867 26.5352 22.3618 26.5352 22.9048V24.941C26.5352 25.484 27.0103 25.9591 27.5533 25.9591H32.3044C32.8473 25.9591 33.3225 25.484 33.3225 24.941V22.9048C33.3225 22.3618 32.8473 21.8867 32.3044 21.8867Z" fill="#92929D"/>
<path d="M32.3031 28.674H5.83266C5.28968 28.674 4.81456 28.1989 4.81456 27.6559V22.9048C4.81456 22.3618 4.33945 21.8867 3.79647 21.8867H1.76028C1.2173 21.8867 0.742188 22.3618 0.742188 22.9048V31.7283C0.742188 32.2713 1.2173 32.7464 1.76028 32.7464H3.79647H4.81456H32.3031C32.8461 32.7464 33.3212 32.2713 33.3212 31.7283V29.6921C33.3212 29.1491 32.8461 28.674 32.3031 28.674Z" fill="#92929D"/>
<path d="M32.3031 15.0998H5.83266C5.28968 15.0998 4.81456 14.6247 4.81456 14.0817V9.33059C4.81456 8.78761 4.33945 8.3125 3.79647 8.3125H1.76028C1.2173 8.3125 0.742188 8.78761 0.742188 9.33059V18.1541C0.742188 18.6971 1.2173 19.1722 1.76028 19.1722H3.11774H4.81456H32.3031C32.8461 19.1722 33.3212 18.6971 33.3212 18.1541V16.1179C33.3212 15.5749 32.8461 15.0998 32.3031 15.0998Z" fill="#92929D"/>
</svg>
