<svg width="45" height="45" viewBox="0 0 45 45" fill="none" xmlns="http://www.w3.org/2000/svg">
<path d="M37.8135 3.33057V33.3589H33.5085L37.1946 41.5484H8.40403L12.0888 33.3589H7.78516V3.33057H37.8135ZM30.5152 33.3589H15.082L12.6252 38.8186H32.9721L30.5152 33.3589ZM35.0836 6.06041H10.515V30.629H35.0836V6.06041ZM22.7993 12.885C25.8146 12.885 28.259 15.3294 28.259 18.3447C28.259 21.36 25.8146 23.8044 22.7993 23.8044C19.784 23.8044 17.3396 21.36 17.3396 18.3447C17.3396 15.3294 19.784 12.885 22.7993 12.885ZM22.7993 15.6149C21.2917 15.6149 20.0695 16.8371 20.0695 18.3447C20.0695 19.8524 21.2917 21.0746 22.7993 21.0746C24.307 21.0746 25.5292 19.8524 25.5292 18.3447C25.5292 16.8371 24.307 15.6149 22.7993 15.6149Z" fill="#92929D"/>
</svg>
