<svg width="88" height="88" viewBox="0 0 88 88" fill="none" xmlns="http://www.w3.org/2000/svg">
<path d="M82.0468 87.5166H5.46979C3.93141 87.5166 2.63518 86.9896 1.58111 85.9355C0.527037 84.8814 0 83.5852 0 82.0468V27.3489C0 25.8675 0.527037 24.5856 1.58111 23.503C2.63518 22.4204 3.93141 21.8791 5.46979 21.8791H32.8187V27.3489C32.8187 31.0524 33.8301 33.8016 35.8527 35.5963C37.8754 37.3911 40.5106 38.2885 43.7583 38.2885C46.949 38.2885 49.5699 37.3484 51.6211 35.4681C53.6723 33.5879 54.6979 30.8815 54.6979 27.3489V21.8791H82.0468C83.5282 21.8791 84.8102 22.4204 85.8927 23.503C86.9753 24.5856 87.5166 25.8675 87.5166 27.3489V82.0468C87.5166 83.5852 86.9896 84.8814 85.9355 85.9355C84.8814 86.9896 83.5852 87.5166 82.0468 87.5166ZM30.0838 68.8851V67.3467C35.5536 65.1246 38.2885 59.0851 38.2885 49.2281C38.2885 45.6385 37.0208 42.9179 34.4853 41.0661C31.9498 39.2144 28.6736 38.2885 24.6568 38.2885C20.6399 38.2885 17.3495 39.2144 14.7855 41.0661C12.2216 42.9179 10.9396 45.6385 10.9396 49.2281C10.9396 58.8002 13.6745 64.7828 19.1443 67.1758V68.8851C15.2128 69.5688 11.9652 70.8508 9.4012 72.7311C6.83723 74.6113 5.52676 76.7479 5.46979 79.141C5.46979 79.8247 6.08229 80.3802 7.30729 80.8075C8.5323 81.2349 10.3271 81.534 12.6916 81.7049C15.0562 81.8759 17.0076 81.9756 18.546 82.0041C20.0844 82.0326 22.1071 82.0468 24.614 82.0468C27.121 82.0468 29.1437 82.0326 30.6821 82.0041C32.2205 81.9756 34.1719 81.8759 36.5365 81.7049C38.901 81.534 40.6958 81.2349 41.9208 80.8075C43.1458 80.3802 43.7583 79.8247 43.7583 79.141C43.7013 76.7479 42.4051 74.6113 39.8696 72.7311C37.3341 70.8508 34.0722 69.5688 30.0838 68.8851ZM73.8421 49.2281H51.963C51.2223 49.2281 50.5813 49.4987 50.04 50.04C49.4987 50.5813 49.2281 51.2223 49.2281 51.963C49.2281 52.7037 49.4987 53.3447 50.04 53.8859C50.5813 54.4272 51.2223 54.6979 51.963 54.6979H73.8421C74.5828 54.6979 75.2238 54.4272 75.7651 53.8859C76.3064 53.3447 76.577 52.7037 76.577 51.963C76.577 51.2223 76.3064 50.5813 75.7651 50.04C75.2238 49.4987 74.5828 49.2281 73.8421 49.2281ZM49.2281 62.9025C49.2281 63.6432 49.4987 64.2842 50.04 64.8255C50.5813 65.3668 51.2223 65.6374 51.963 65.6374H62.9025C63.6432 65.6374 64.2842 65.3668 64.8255 64.8255C65.3668 64.2842 65.6374 63.6432 65.6374 62.9025C65.6374 62.1618 65.3668 61.5209 64.8255 60.9796C64.2842 60.4383 63.6432 60.1677 62.9025 60.1677H51.963C51.2223 60.1677 50.5813 60.4383 50.04 60.9796C49.4987 61.5209 49.2281 62.1618 49.2281 62.9025ZM73.8421 71.1072H51.963C51.2223 71.1072 50.5813 71.3779 50.04 71.9192C49.4987 72.4604 49.2281 73.1014 49.2281 73.8421C49.2281 74.5828 49.4987 75.2238 50.04 75.7651C50.5813 76.3064 51.2223 76.577 51.963 76.577H73.8421C74.5828 76.577 75.2238 76.3064 75.7651 75.7651C76.3064 75.2238 76.577 74.5828 76.577 73.8421C76.577 73.1014 76.3064 72.4604 75.7651 71.9192C75.2238 71.3779 74.5828 71.1072 73.8421 71.1072ZM49.2281 10.9396V27.3489C49.2281 28.8873 48.6868 30.1835 47.6042 31.2376C46.5217 32.2917 45.2254 32.8187 43.7156 32.8187C42.2057 32.8187 40.9237 32.2917 39.8696 31.2376C38.8155 30.1835 38.2885 28.8873 38.2885 27.3489V10.9396C36.7501 10.9396 35.4539 10.4125 34.3998 9.35846C33.3458 8.30439 32.8187 7.02241 32.8187 5.51252C32.8187 4.00263 33.3458 2.7064 34.3998 1.62384C35.4539 0.541281 36.7501 0 38.2885 0H49.2281C50.7095 0 51.9915 0.541281 53.074 1.62384C54.1566 2.7064 54.6979 4.00263 54.6979 5.51252C54.6979 7.02241 54.1708 8.30439 53.1168 9.35846C52.0627 10.4125 50.7665 10.9396 49.2281 10.9396Z" fill="#92929D"/>
</svg>
